<mxfile host="app.diagrams.net" modified="2023-11-03T19:44:24.322Z" agent="Mozilla/5.0 (Macintosh; Intel Mac OS X 10_15_7) AppleWebKit/537.36 (KHTML, like Gecko) Chrome/118.0.0.0 Safari/537.36" etag="ZhJdRZOv9PJXTZa7VJsL" version="21.6.8" type="github">
  <diagram name="Page-1" id="OPB6sNh2ojqwLRkyxPBp">
    <mxGraphModel dx="951" dy="604" grid="1" gridSize="10" guides="1" tooltips="1" connect="1" arrows="1" fold="1" page="1" pageScale="1" pageWidth="827" pageHeight="1169" math="0" shadow="0">
      <root>
        <mxCell id="0" />
        <mxCell id="1" parent="0" />
        <mxCell id="dpVPuzg9i0omsi2Ho9sH-1" value="Actor" style="shape=umlActor;verticalLabelPosition=bottom;verticalAlign=top;html=1;outlineConnect=0;" vertex="1" parent="1">
          <mxGeometry x="20" y="114" width="20" height="46" as="geometry" />
        </mxCell>
        <mxCell id="dpVPuzg9i0omsi2Ho9sH-26" style="edgeStyle=orthogonalEdgeStyle;rounded=0;orthogonalLoop=1;jettySize=auto;html=1;" edge="1" parent="1" source="dpVPuzg9i0omsi2Ho9sH-2" target="dpVPuzg9i0omsi2Ho9sH-14">
          <mxGeometry relative="1" as="geometry" />
        </mxCell>
        <mxCell id="dpVPuzg9i0omsi2Ho9sH-27" style="edgeStyle=orthogonalEdgeStyle;rounded=0;orthogonalLoop=1;jettySize=auto;html=1;" edge="1" parent="1" source="dpVPuzg9i0omsi2Ho9sH-2" target="dpVPuzg9i0omsi2Ho9sH-23">
          <mxGeometry relative="1" as="geometry" />
        </mxCell>
        <mxCell id="dpVPuzg9i0omsi2Ho9sH-2" value="auth api&lt;br&gt;music api&lt;br&gt;search api&lt;br&gt;user api" style="rounded=1;whiteSpace=wrap;html=1;" vertex="1" parent="1">
          <mxGeometry x="294" y="70" width="126" height="90" as="geometry" />
        </mxCell>
        <mxCell id="dpVPuzg9i0omsi2Ho9sH-3" value="monolithic app that can be sliced up (microservice aware)" style="text;html=1;strokeColor=none;fillColor=none;align=center;verticalAlign=middle;whiteSpace=wrap;rounded=0;" vertex="1" parent="1">
          <mxGeometry x="270" y="20" width="200" height="30" as="geometry" />
        </mxCell>
        <mxCell id="dpVPuzg9i0omsi2Ho9sH-7" value="web application" style="ellipse;shape=cloud;whiteSpace=wrap;html=1;" vertex="1" parent="1">
          <mxGeometry x="80" y="49" width="130" height="50" as="geometry" />
        </mxCell>
        <mxCell id="dpVPuzg9i0omsi2Ho9sH-8" value="phone app" style="rounded=0;whiteSpace=wrap;html=1;" vertex="1" parent="1">
          <mxGeometry x="110" y="114" width="70" height="50" as="geometry" />
        </mxCell>
        <mxCell id="dpVPuzg9i0omsi2Ho9sH-11" value="entrypoint" style="swimlane;whiteSpace=wrap;html=1;" vertex="1" parent="1">
          <mxGeometry x="75" y="20" width="140" height="150" as="geometry" />
        </mxCell>
        <mxCell id="dpVPuzg9i0omsi2Ho9sH-14" value="songs DB (blobs)" style="shape=cylinder3;whiteSpace=wrap;html=1;boundedLbl=1;backgroundOutline=1;size=15;" vertex="1" parent="1">
          <mxGeometry x="490" y="210" width="60" height="80" as="geometry" />
        </mxCell>
        <mxCell id="dpVPuzg9i0omsi2Ho9sH-19" value="&lt;h1 style=&quot;font-size: 17px;&quot;&gt;&lt;font style=&quot;font-size: 17px;&quot;&gt;Online music service&lt;/font&gt;&lt;/h1&gt;&lt;div style=&quot;font-size: 11px;&quot;&gt;&lt;font style=&quot;font-size: 11px;&quot;&gt;Service is providing online music experience via application (web or mobile)&lt;/font&gt;&lt;/div&gt;&lt;div style=&quot;font-size: 11px;&quot;&gt;&lt;font style=&quot;font-size: 11px;&quot;&gt;&lt;br&gt;&lt;/font&gt;&lt;/div&gt;&lt;div style=&quot;font-size: 11px;&quot;&gt;&lt;font style=&quot;font-size: 11px;&quot;&gt;Users can listen, search music, create playlists, get suggestions based on favorites.&lt;/font&gt;&lt;/div&gt;&lt;div style=&quot;font-size: 11px;&quot;&gt;&lt;font style=&quot;font-size: 11px;&quot;&gt;&lt;br&gt;&lt;/font&gt;&lt;/div&gt;&lt;div style=&quot;font-size: 11px;&quot;&gt;&lt;font style=&quot;font-size: 11px;&quot;&gt;To use service user is required to sign in (or create account)&lt;/font&gt;&lt;/div&gt;&lt;div style=&quot;font-size: 11px;&quot;&gt;&lt;font style=&quot;font-size: 11px;&quot;&gt;Authorized, user is able to perform actions&amp;nbsp;&lt;/font&gt;&lt;/div&gt;&lt;div&gt;&lt;font style=&quot;font-size: 14px;&quot;&gt;&lt;br&gt;&lt;/font&gt;&lt;/div&gt;&lt;div style=&quot;font-size: 11px;&quot;&gt;&lt;font style=&quot;font-size: 11px;&quot;&gt;Use cases:&lt;/font&gt;&lt;/div&gt;&lt;ul style=&quot;font-size: 11px;&quot;&gt;&lt;li style=&quot;&quot;&gt;&lt;font style=&quot;font-size: 11px;&quot;&gt;sign in\out logic&lt;/font&gt;&lt;/li&gt;&lt;li style=&quot;&quot;&gt;&lt;font style=&quot;font-size: 11px;&quot;&gt;store user preferences&lt;/font&gt;&lt;/li&gt;&lt;li style=&quot;&quot;&gt;&lt;font style=&quot;font-size: 11px;&quot;&gt;search\play music&lt;/font&gt;&lt;/li&gt;&lt;li style=&quot;&quot;&gt;&lt;font style=&quot;font-size: 11px;&quot;&gt;create playlists&lt;/font&gt;&lt;/li&gt;&lt;li style=&quot;&quot;&gt;&lt;font style=&quot;font-size: 11px;&quot;&gt;get suggestions based on pref.&lt;/font&gt;&lt;/li&gt;&lt;li style=&quot;&quot;&gt;&lt;font style=&quot;font-size: 11px;&quot;&gt;likes&lt;/font&gt;&lt;/li&gt;&lt;li style=&quot;&quot;&gt;&lt;font style=&quot;font-size: 11px;&quot;&gt;history&lt;/font&gt;&lt;/li&gt;&lt;/ul&gt;" style="text;html=1;strokeColor=none;fillColor=none;spacing=5;spacingTop=-20;whiteSpace=wrap;overflow=hidden;rounded=0;" vertex="1" parent="1">
          <mxGeometry x="10" y="230" width="190" height="500" as="geometry" />
        </mxCell>
        <mxCell id="dpVPuzg9i0omsi2Ho9sH-23" value="meta DB" style="shape=cylinder3;whiteSpace=wrap;html=1;boundedLbl=1;backgroundOutline=1;size=15;" vertex="1" parent="1">
          <mxGeometry x="450" y="170" width="60" height="80" as="geometry" />
        </mxCell>
        <mxCell id="dpVPuzg9i0omsi2Ho9sH-25" value="" style="shape=flexArrow;endArrow=classic;html=1;rounded=0;" edge="1" parent="1">
          <mxGeometry width="50" height="50" relative="1" as="geometry">
            <mxPoint x="221" y="115.03" as="sourcePoint" />
            <mxPoint x="286" y="114.68" as="targetPoint" />
          </mxGeometry>
        </mxCell>
        <mxCell id="dpVPuzg9i0omsi2Ho9sH-28" value="song_id" style="whiteSpace=wrap;html=1;shape=mxgraph.basic.document" vertex="1" parent="1">
          <mxGeometry x="540" y="270" width="60" height="60" as="geometry" />
        </mxCell>
        <mxCell id="dpVPuzg9i0omsi2Ho9sH-29" value="artist&lt;br&gt;title&lt;br&gt;album&lt;br&gt;year&lt;br&gt;genre&lt;br&gt;size&lt;br&gt;song_url" style="whiteSpace=wrap;html=1;shape=mxgraph.basic.document" vertex="1" parent="1">
          <mxGeometry x="378" y="220" width="70" height="120" as="geometry" />
        </mxCell>
      </root>
    </mxGraphModel>
  </diagram>
</mxfile>
